<?xml version="1.0" encoding="iso-8859-1"?>
<!-- Generator: Adobe Illustrator 16.0.0, SVG Export Plug-In . SVG Version: 6.00 Build 0)  -->
<!DOCTYPE svg PUBLIC "-//W3C//DTD SVG 1.1//EN" "http://www.w3.org/Graphics/SVG/1.1/DTD/svg11.dtd">
<svg version="1.1" id="Capa_1" xmlns="http://www.w3.org/2000/svg" xmlns:xlink="http://www.w3.org/1999/xlink" x="0px" y="0px"
	 width="29.2px" height="29.2px" viewBox="0 0 29.196 29.196" style="enable-background: new 0 0 29.196 29.196"
	 xml:space="preserve">
<g fill="rgb(255, 255, 255)">
	<g>
		<path d="M 26.2 7.7 h -7.8 c -0.4 0 -0.8 0.1 -1.1 0.2 C 16.7 6.7 15.5 5.8 14.1 5.8 H 3.5 C 1.6 5.8 0 7.4 0 9.3 v 10.5 c 0 1.9 1.6 3.5 3.5 3.5 H 14.1 c 1.4 0 2.7 -0.9 3.2 -2.1 c 0.4 0.1 0.7 0.2 1.1 0.2 h 7.8 c 1.7 0 3 -1.4 3 -3 v -7.8 C 29.2 9 27.8 7.7 26.2 7.7 z M 8.8 20.3 c -2.8 0 -4.1 -2.6 -4.1 -5.7 c 0 -3.2 1.4 -5.7 4.2 -5.7 c 2.9 0 4.1 2.6 4.1 5.6 C 12.9 18 11.6 20.3 8.8 20.3 z M 28.3 18.5 c 0 1.2 -1 2.1 -2.1 2.1 h -7.8 c -0.3 0 -0.6 -0.1 -0.9 -0.2 c 0 -0.2 0.1 -0.4 0.1 -0.6 V 9.3 c 0 -0.2 0 -0.4 -0.1 -0.6 c 0.3 -0.1 0.6 -0.2 0.9 -0.2 h 7.8 c 1.2 0 2.1 1 2.1 2.1 V 18.5 z"/>
		<polygon points="20.4,11.5 20.7,13 22.3,12.2 22.3,12.2 22.3,18.7 24.1,18.7 24.1,10.5 22.6,10.5"/>
		<path d="M 8.8 10.9 c -0.9 0 -1.6 1.2 -1.6 3.8 c 0 2.5 0.6 3.7 1.6 3.7 s 1.5 -1.3 1.5 -3.8 C 10.4 12.1 9.8 10.9 8.8 10.9 z"/>
	</g>
</g>
<g>
</g>
<g>
</g>
<g>
</g>
<g>
</g>
<g>
</g>
<g>
</g>
<g>
</g>
<g>
</g>
<g>
</g>
<g>
</g>
<g>
</g>
<g>
</g>
<g>
</g>
<g>
</g>
<g>
</g>
</svg>
