<?xml version="1.0" encoding="UTF-8"?>
<svg xmlns="http://www.w3.org/2000/svg" width="512" height="512" viewBox="0 0 128 128"><g fill="rgb(255, 255, 255)"><path transform="matrix(1.6,0,0,1.6,-34.7,-32.7)" d="M 96.8 67.6 C 99.3 67.3 101.2 65.1 101.2 62.6 C 101.2 60 99.3 57.9 96.8 57.5 H 89.3 V 53.2 h 7.5 C 98.8 53.5 100.7 52.6 101.8 50.9 C 102.9 49.2 102.9 47.1 101.8 45.4 C 100.7 43.7 98.8 42.8 96.8 43.1 H 89.3 v -0.4 C 89.2 39 86.2 36 82.5 36 h -0.4 V 28.5 C 82.4 26.5 81.5 24.6 79.8 23.5 C 78.1 22.4 76 22.4 74.3 23.5 C 72.6 24.6 71.7 26.5 72 28.5 V 36 H 67.9 V 28.5 C 67.5 26 65.4 24.1 62.8 24.1 C 60.3 24.1 58.2 26 57.8 28.5 V 36 H 53.5 V 28.5 C 53.8 26.5 52.9 24.6 51.2 23.5 C 49.5 22.4 47.4 22.4 45.7 23.5 C 44 24.6 43.1 26.5 43.4 28.5 V 36 h -0.4 C 39.3 36.1 36.3 39.1 36.3 42.8 v 0.4 H 28.8 C 26.8 42.9 24.9 43.8 23.8 45.5 C 22.7 47.2 22.7 49.3 23.8 51 C 24.9 52.7 26.8 53.6 28.8 53.3 H 36.3 v 4.2 H 28.8 C 26.3 57.9 24.4 60 24.4 62.6 C 24.4 65.1 26.3 67.3 28.8 67.6 H 36.3 V 71.8 H 28.8 C 26.8 71.5 24.9 72.4 23.8 74.1 C 22.7 75.8 22.7 77.9 23.8 79.6 C 24.9 81.3 26.8 82.2 28.8 81.9 H 36.3 v 0.4 C 36.4 86 39.4 89 43.1 89 h 0.4 v 7.5 C 43.2 98.5 44.1 100.4 45.8 101.5 C 47.5 102.6 49.6 102.6 51.3 101.5 C 53 100.4 53.9 98.5 53.6 96.5 V 89 h 4.2 v 7.5 C 58.2 99 60.3 100.9 62.8 100.9 C 65.4 100.9 67.5 99 67.9 96.5 V 89 h 4.2 v 7.5 C 71.8 98.5 72.7 100.4 74.4 101.5 C 76.1 102.6 78.2 102.6 79.9 101.5 C 81.6 100.4 82.5 98.5 82.2 96.5 V 89 h 0.4 C 86.3 89 89.3 85.9 89.3 82.2 v -0.4 h 7.5 C 98.8 82.1 100.7 81.2 101.8 79.5 C 102.9 77.8 102.9 75.7 101.8 74 C 100.7 72.3 98.8 71.4 96.8 71.7 H 89.3 V 67.6 Z m 0 -6.6 C 97.5 61.2 98 61.8 98 62.6 C 98 63.3 97.5 63.9 96.8 64.1 H 89.3 V 60.9 Z m 0 -14.3 C 97.4 46.5 98.1 46.8 98.5 47.3 C 98.9 47.9 98.9 48.6 98.5 49.2 C 98.1 49.7 97.4 50 96.8 49.8 H 89.3 V 46.6 Z M 75.6 28.5 C 75.4 27.9 75.7 27.2 76.2 26.8 C 76.8 26.4 77.5 26.4 78.1 26.8 C 78.6 27.2 78.9 27.9 78.7 28.5 V 36 H 75.6 Z m -14.3 0 C 61.5 27.8 62.1 27.3 62.8 27.3 C 63.6 27.3 64.2 27.8 64.4 28.5 V 36 H 61.2 Z m -14.3 0 C 46.8 27.9 47.1 27.2 47.6 26.8 C 48.2 26.4 48.9 26.4 49.5 26.8 C 50 27.2 50.3 27.9 50.1 28.5 V 36 H 46.9 Z M 28.8 49.7 C 28.1 49.9 27.5 49.6 27.1 49.1 C 26.7 48.5 26.7 47.8 27.1 47.2 C 27.5 46.7 28.1 46.4 28.8 46.6 H 36.3 v 3.1 Z m 0 14.3 C 28.1 63.8 27.6 63.2 27.6 62.5 C 27.6 61.7 28.1 61.1 28.8 60.9 H 36.3 v 3.1 Z m 0 14.3 C 28.1 78.5 27.5 78.2 27.1 77.7 C 26.7 77.1 26.7 76.4 27.1 75.8 C 27.5 75.3 28.1 75 28.8 75.2 H 36.3 v 3.1 Z m 21.3 18.1 C 50.3 97.1 50 97.7 49.5 98.1 C 48.9 98.5 48.2 98.5 47.6 98.1 C 47.1 97.7 46.8 97.1 47 96.4 V 89 h 3.1 Z m 14.3 0 C 64.2 97.1 63.6 97.6 62.8 97.6 C 62.1 97.6 61.5 97.1 61.3 96.4 V 89 h 3.1 Z m 14.3 0 C 78.9 97.1 78.6 97.7 78.1 98.1 C 77.5 98.5 76.8 98.5 76.2 98.1 C 75.7 97.7 75.4 97.1 75.6 96.4 V 89 h 3.1 Z M 85.8 82.2 C 85.8 84 84.3 85.5 82.5 85.5 H 43.1 C 41.3 85.5 39.8 84 39.8 82.2 V 42.8 C 39.8 41 41.3 39.5 43.1 39.5 H 82.5 C 84.3 39.5 85.8 41 85.8 42.8 Z M 96.8 75.3 C 97.4 75.1 98.1 75.4 98.5 75.9 C 98.9 76.5 98.9 77.2 98.5 77.8 C 98.1 78.3 97.4 78.6 96.8 78.4 H 89.3 V 75.3 Z"/><path transform="matrix(1.6,0,0,1.6,-34.7,-32.7)" d="M 74.9 45.6 H 50.7 C 48 45.6 45.9 47.8 45.9 50.4 V 74.6 C 45.9 77.3 48 79.4 50.7 79.4 H 74.9 C 77.5 79.4 79.7 77.3 79.7 74.6 V 50.4 C 79.7 47.8 77.5 45.6 74.9 45.6 Z M 76.2 74.6 C 76.2 75.3 75.6 75.9 74.9 75.9 H 50.7 C 50 75.9 49.4 75.3 49.4 74.6 V 50.4 C 49.4 49.7 50 49.1 50.7 49.1 H 74.9 C 75.6 49.1 76.2 49.7 76.2 50.4 Z"/></g></svg>
