<?xml version="1.0" encoding="iso-8859-1"?>
<!-- Generator: Adobe Illustrator 16.0.0, SVG Export Plug-In . SVG Version: 6.00 Build 0)  -->
<!DOCTYPE svg PUBLIC "-//W3C//DTD SVG 1.1//EN" "http://www.w3.org/Graphics/SVG/1.1/DTD/svg11.dtd">
<svg version="1.1" id="Capa_1" xmlns="http://www.w3.org/2000/svg" xmlns:xlink="http://www.w3.org/1999/xlink" x="0px" y="0px"
	 width="82.6px" height="82.6px" viewBox="0 0 82.626 82.627" style="enable-background: new 0 0 82.626 82.627"
	 xml:space="preserve">
<g fill="rgb(255, 255, 255)">
	<path transform="matrix(0.8,0,0,0.7,7.7,9.3)" d="M -3.2 7.3 l 0.2 42.8 c 0 0.5 0.3 1.1 0.8 1.3 l 34.2 17.9 c 0.2 0.1 0.5 0.2 0.7 0.2 c 0 0 0 0 0 0 c 0.1 0.1 0.2 0.2 0.4 0.3 c 0.2 0.1 0.5 0.2 0.8 0.2 c 0.2 0 0.5 -0.1 0.7 -0.2 l 33.7 -18.3 c 0.5 -0.3 0.8 -0.8 0.8 -1.3 v -44.5 c 0 0 0 0 0 0 c 0 0 0 0 0 0 c 0 0 0 -0.1 0 -0.1 c 0 -0.1 0 -0.2 0 -0.2 c 0 -0.1 0 -0.1 -0.1 -0.2 c 0 -0.1 -0.1 -0.1 -0.1 -0.2 c 0 -0.1 -0.1 -0.1 -0.1 -0.1 c 0 -0.1 -0.1 -0.1 -0.2 -0.2 c 0 0 -0.1 -0.1 -0.1 -0.1 c 0 0 -0.1 -0.1 -0.1 -0.1 c 0 0 -0.1 0 -0.1 0 c 0 0 -0.1 0 -0.1 0 L 33.3 -12.6 c -0.4 -0.2 -0.9 -0.2 -1.3 0 L -2.3 5.4 c -0.5 0.3 -0.8 0.8 -0.8 1.3 c 0 0 0 0 0 0 C -3.1 6.9 -3.2 7.1 -3.2 7.3 z M 64.1 5.8 l -30.3 16.9 L 1.7 6.7 L 32.8 -9.5 L 64.1 5.8 z M 35.3 65.9 V 25.3 l 30.7 -17.2 v 41.1 L 35.3 65.9 z"
		/>
</g>
<g>
</g>
<g>
</g>
<g>
</g>
<g>
</g>
<g>
</g>
<g>
</g>
<g>
</g>
<g>
</g>
<g>
</g>
<g>
</g>
<g>
</g>
<g>
</g>
<g>
</g>
<g>
</g>
<g>
</g>
</svg>
