<?xml version="1.0" encoding="UTF-8"?>
<svg xmlns="http://www.w3.org/2000/svg" width="512" height="512" viewBox="0 0 128 128"><g><path transform="matrix(1.6,0,0,1.6,-36.7,-35.6)" d="M 96.2 67 C 99 67 101.3 64.7 101.3 62 C 101.3 59.2 99 56.9 96.2 56.9 H 88.7 V 52.7 h 7.5 C 99 52.7 101.3 50.4 101.3 47.6 C 101.3 44.8 99 42.6 96.2 42.6 H 88.7 v -0.4 C 88.7 38.5 85.7 35.5 81.9 35.5 h -0.4 V 27.9 C 81.6 26.1 80.6 24.4 79.1 23.5 C 77.5 22.6 75.5 22.6 74 23.5 C 72.4 24.4 71.4 26.1 71.5 27.9 V 35.5 H 67.3 V 27.9 C 67.3 25.1 65 22.9 62.2 22.9 C 59.4 22.9 57.1 25.1 57.1 27.9 V 35.5 H 53 V 27.9 C 53 26.1 52 24.4 50.4 23.5 C 48.9 22.6 46.9 22.6 45.3 23.5 C 43.8 24.4 42.8 26.1 42.8 27.9 V 35.5 h -0.4 C 38.7 35.5 35.7 38.5 35.7 42.2 v 0.4 H 28.2 C 25.4 42.6 23.1 44.8 23.1 47.6 C 23.1 50.4 25.4 52.7 28.2 52.7 H 35.7 v 4.2 H 28.2 C 25.4 56.9 23.1 59.2 23.1 62 C 23.1 64.7 25.4 67 28.2 67 H 35.7 V 71.2 H 28.2 C 26.4 71.2 24.7 72.2 23.8 73.7 C 22.9 75.3 22.9 77.2 23.8 78.8 C 24.7 80.4 26.4 81.3 28.2 81.3 H 35.7 v 0.4 C 35.7 85.4 38.7 88.4 42.5 88.5 h 0.4 v 7.5 C 42.8 97.8 43.8 99.5 45.3 100.4 C 46.9 101.3 48.9 101.3 50.4 100.4 C 52 99.5 53 97.8 53 96 V 88.5 h 4.2 v 7.5 C 57.1 98.8 59.4 101 62.2 101 C 65 101 67.3 98.8 67.3 96 V 88.5 h 4.2 v 7.5 C 71.4 97.8 72.4 99.5 74 100.4 C 75.5 101.3 77.5 101.3 79.1 100.4 C 80.6 99.5 81.6 97.8 81.6 96 V 88.5 h 0.4 C 85.7 88.4 88.7 85.4 88.7 81.7 v -0.4 h 7.5 C 98 81.3 99.7 80.4 100.6 78.8 C 101.5 77.2 101.5 75.3 100.6 73.7 C 99.7 72.2 98 71.2 96.2 71.2 H 88.7 V 67 Z m 0 -6.6 C 97.1 60.4 97.8 61.1 97.8 62 C 97.8 62.8 97.1 63.5 96.2 63.5 H 88.7 V 60.4 Z m 0 -14.3 C 97.1 46.1 97.8 46.8 97.8 47.6 C 97.8 48.5 97.1 49.2 96.2 49.2 H 88.7 V 46.1 Z M 75 27.9 C 74.9 27.4 75.2 26.8 75.7 26.5 C 76.2 26.3 76.8 26.3 77.3 26.5 C 77.8 26.8 78.1 27.4 78.1 27.9 V 35.5 H 75 Z m -14.3 0 C 60.6 27.1 61.3 26.4 62.2 26.4 C 63.1 26.4 63.8 27.1 63.8 27.9 V 35.5 H 60.6 Z m -14.3 0 C 46.3 27.4 46.6 26.8 47.1 26.5 C 47.6 26.3 48.2 26.3 48.7 26.5 C 49.2 26.8 49.5 27.4 49.5 27.9 V 35.5 H 46.3 Z M 28.2 49.2 C 27.3 49.2 26.6 48.5 26.6 47.6 C 26.6 46.8 27.3 46.1 28.2 46.1 H 35.7 v 3.1 Z m 0 14.3 C 27.3 63.5 26.6 62.8 26.6 62 C 26.6 61.1 27.3 60.4 28.2 60.4 H 35.7 v 3.1 Z m 0 14.3 C 27.6 77.8 27.1 77.5 26.8 77 C 26.6 76.6 26.6 76 26.8 75.5 C 27.1 75 27.6 74.7 28.2 74.7 H 35.7 v 3.1 Z m 21.3 18.1 C 49.5 96.5 49.2 97.1 48.7 97.4 C 48.2 97.6 47.6 97.6 47.1 97.4 C 46.6 97.1 46.3 96.5 46.3 96 V 88.5 h 3.1 Z m 14.3 0 C 63.8 96.8 63.1 97.5 62.2 97.5 C 61.3 97.5 60.6 96.8 60.6 96 V 88.5 h 3.1 Z m 14.3 0 C 78.1 96.5 77.8 97.1 77.3 97.4 C 76.8 97.6 76.2 97.6 75.7 97.4 C 75.2 97.1 74.9 96.5 75 96 V 88.5 h 3.1 Z M 85.2 81.7 C 85.2 83.5 83.7 85 81.9 85 H 42.5 C 40.7 85 39.2 83.5 39.2 81.7 V 42.2 C 39.2 40.4 40.7 39 42.5 39 H 81.9 C 83.7 39 85.2 40.4 85.2 42.2 Z M 96.2 74.7 C 96.8 74.7 97.3 75 97.6 75.5 C 97.9 76 97.9 76.6 97.6 77 C 97.3 77.5 96.8 77.8 96.2 77.8 H 88.7 V 74.7 Z"/><path transform="matrix(1.6,0,0,1.6,-36.7,-35.6)" d="M 74.3 45 H 50.1 C 47.4 45 45.3 47.2 45.3 49.9 V 74.1 C 45.3 76.7 47.4 78.9 50.1 78.9 H 74.3 C 77 78.9 79.1 76.7 79.1 74.1 V 49.9 C 79.1 47.2 77 45 74.3 45 Z M 75.6 74.1 C 75.6 74.8 75 75.4 74.3 75.4 H 50.1 C 49.4 75.4 48.8 74.8 48.8 74.1 V 49.9 C 48.8 49.1 49.4 48.5 50.1 48.5 H 74.3 C 75 48.5 75.6 49.1 75.6 49.9 Z"/></g></svg>
